<svg version="1.1" id="Layer_1" xmlns="http://www.w3.org/2000/svg" xmlns:xlink="http://www.w3.org/1999/xlink" x="0px" y="0px"
	 width="100%" viewBox="0 0 1024 1024" enable-background="new 0 0 1024 1024" xml:space="preserve">
<path fill="#000000" opacity="1.000000" stroke="none" 
	d="
M533.204468,712.108521 
	C564.420227,693.410034 598.129883,686.611389 633.698181,688.864563 
	C651.321655,689.980957 668.624634,693.636169 685.387085,699.487854 
	C691.903198,701.762573 692.734375,701.147461 692.679016,694.382385 
	C692.612305,686.222717 692.940430,678.060974 692.168945,669.903137 
	C691.774963,665.737183 690.355835,662.205994 687.693359,659.033081 
	C681.466064,651.611633 674.541809,644.878540 667.466003,638.289124 
	C661.860840,633.069214 661.721191,631.106750 666.663391,625.397766 
	C673.530640,617.465027 681.241394,610.310608 687.783325,602.054932 
	C691.100403,597.868896 692.882141,593.415222 692.494141,588.258301 
	C691.528625,575.426453 692.952698,562.626648 692.710327,549.800598 
	C692.288818,527.498352 691.730164,505.176331 692.232788,482.885254 
	C692.750916,459.909882 692.262085,436.939148 692.216797,413.981750 
	C692.181702,396.181244 693.273743,378.385559 692.332031,360.547424 
	C691.555359,345.837280 692.600342,331.039246 692.529663,316.281647 
	C692.418945,293.149597 692.413818,270.005402 691.568726,246.895447 
	C691.309570,239.808014 687.836975,233.045975 685.091614,226.541489 
	C681.779358,227.046509 681.281616,229.204056 680.288879,230.838089 
	C665.991150,254.372299 646.530029,271.281189 618.897278,276.582153 
	C597.107056,280.762268 576.375549,277.673431 559.839233,261.542236 
	C545.205872,247.267410 540.921875,229.016129 545.552490,209.512222 
	C552.175110,181.617950 570.290222,162.203888 594.520630,147.993484 
	C595.801758,147.242172 597.232971,146.714752 598.643555,146.224640 
	C600.277893,145.656754 601.572266,146.248978 602.473755,147.712418 
	C603.367981,149.164276 603.396484,150.630707 602.126038,151.807083 
	C600.050171,153.729263 597.853760,155.521347 595.706787,157.366653 
	C587.050110,164.807114 580.206970,173.320480 578.234680,185.054367 
	C575.037109,204.077988 585.265686,219.546860 604.230225,223.611679 
	C621.083252,227.223907 636.888611,223.868118 652.139648,216.256866 
	C670.127319,207.279907 682.316406,193.497971 689.886353,174.846985 
	C698.297241,154.123947 711.106323,136.377991 729.537354,123.195435 
	C745.967163,111.444244 764.074768,106.226814 784.276062,109.838127 
	C790.960266,111.033035 797.102539,113.481277 802.016846,118.374771 
	C807.000122,123.337013 808.983704,129.255234 807.210022,136.163879 
	C806.047363,140.692429 802.903870,143.507919 798.323914,143.675598 
	C793.684143,143.845444 791.127014,140.795105 790.144775,136.383255 
	C788.302490,128.108810 782.174072,123.983948 774.720032,122.567268 
	C752.640503,118.370934 730.383667,134.701569 728.703247,156.985214 
	C727.684692,170.490540 734.162415,182.126144 742.292664,192.629578 
	C752.991760,206.451614 767.400391,215.907486 781.602478,225.530960 
	C804.778381,241.235245 828.130798,256.661957 848.792847,275.745117 
	C869.462524,294.835449 885.908813,317.218994 899.343384,341.716339 
	C916.826172,373.595306 926.750427,408.100525 931.913147,443.958557 
	C935.647278,469.893799 936.163879,495.960175 934.524048,522.148499 
	C932.787048,549.888306 928.351746,577.072205 919.445740,603.384827 
	C906.928711,640.366577 888.642517,673.951904 862.129822,703.137573 
	C842.392395,724.864807 819.721436,743.097778 797.404297,761.816650 
	C779.027588,777.230530 759.904907,791.832214 744.552246,810.459900 
	C739.170349,816.989868 734.813354,824.361877 729.945679,831.319519 
	C726.552612,836.169556 725.486694,836.088318 722.233643,831.134216 
	C706.301880,806.871643 684.941284,788.862793 659.190735,775.658508 
	C635.224731,763.369324 609.858521,755.995605 583.046997,755.711060 
	C551.293884,755.374207 521.276794,761.761230 498.002655,785.923096 
	C480.124298,804.483398 476.397034,826.429321 483.493713,850.631653 
	C485.546844,857.633606 489.620941,863.673279 494.750244,868.717590 
	C515.882141,889.499573 539.563721,906.506409 567.924744,916.104187 
	C584.776367,921.807129 601.994629,923.614197 619.577515,919.573730 
	C641.801270,914.466919 657.978821,898.807678 661.250610,878.091980 
	C663.484192,863.949280 659.756042,851.160522 649.074402,841.211060 
	C638.506470,831.367676 626.503540,832.013184 616.385803,842.280457 
	C614.880249,843.808350 613.226868,845.314575 611.374023,846.352905 
	C605.977600,849.376831 599.890076,845.758484 599.696350,839.569458 
	C599.443237,831.483582 606.271729,824.023376 615.919006,821.846008 
	C642.916260,815.752930 669.007812,833.605896 673.240356,861.067932 
	C678.387573,894.464539 660.524109,925.282104 628.545532,938.788147 
	C598.972595,951.278198 569.265137,951.762695 538.836121,941.830322 
	C514.281006,933.815369 493.197876,920.121399 473.369629,904.191284 
	C439.327087,876.841248 409.474579,845.258606 381.326752,811.999817 
	C380.261993,810.741638 378.791809,809.364929 378.606598,807.904541 
	C377.827332,801.760071 374.299896,802.846802 370.038300,803.847412 
	C323.607880,814.748901 280.583008,807.171387 242.212723,778.458008 
	C216.095978,758.914124 198.552841,733.363281 193.204636,700.496704 
	C192.431580,695.745789 192.027267,690.904175 191.881317,686.091492 
	C191.756226,681.967529 189.764725,680.419434 185.955688,680.490784 
	C138.186600,681.385620 99.699509,717.257690 94.694359,763.112427 
	C90.703377,799.675720 102.774902,831.143616 129.360046,857.124329 
	C154.106247,881.307983 184.189499,890.708984 217.758713,889.501648 
	C249.072723,888.375549 274.518524,874.390747 294.762421,850.523376 
	C302.271820,841.669800 308.320221,831.967163 313.362854,821.629883 
	C315.391541,817.471191 317.439453,816.012451 322.440094,816.412354 
	C338.796265,817.720520 355.065643,816.704346 370.810242,811.406433 
	C372.066315,810.983765 373.276794,810.357849 374.934570,810.767517 
	C376.052216,813.463928 374.078522,815.490540 372.875946,817.415039 
	C342.284515,866.370605 299.504791,898.071533 241.802383,906.580811 
	C194.054581,913.622131 151.198273,901.318176 116.648247,866.771484 
	C91.599556,841.725220 79.288696,810.469910 78.726723,774.881775 
	C78.223808,743.034241 86.752243,713.982056 106.413750,688.631653 
	C128.153519,660.601624 156.867050,644.791626 192.042801,640.681213 
	C198.295547,639.950500 202.956223,638.225769 207.094742,632.248718 
	C220.467392,612.935242 237.788452,598.181946 260.917450,591.304871 
	C266.502838,589.644165 272.424683,590.460266 278.869263,587.601501 
	C276.990082,593.182007 273.428436,595.938843 269.819824,598.237671 
	C255.793869,607.172791 247.058365,619.874268 242.266281,635.563660 
	C240.467834,641.451782 241.172913,642.929688 247.004868,644.708740 
	C281.274139,655.163269 310.863068,673.588745 337.295166,697.476746 
	C355.164124,713.625854 370.728760,731.843933 385.811829,750.535339 
	C388.178680,753.468445 387.795746,755.545105 385.463348,757.831543 
	C369.859192,773.128357 351.464630,781.447693 329.269165,780.388672 
	C324.996399,780.184753 325.547821,777.392456 325.953857,774.744629 
	C326.886047,768.665649 327.688660,762.542969 329.102631,756.570312 
	C329.999268,752.782837 328.733032,750.222351 326.458588,747.528564 
	C315.628143,734.701172 302.268860,724.679565 289.529327,713.962036 
	C277.070709,703.480896 263.637390,694.646851 248.243225,689.047607 
	C236.704193,684.850647 235.540436,686.066223 237.064148,697.426514 
	C242.064468,734.706848 260.029633,763.488403 293.450989,780.785828 
	C327.593445,798.456421 370.447754,790.307861 397.098969,762.733215 
	C409.433594,749.971313 415.101196,733.643860 419.274933,716.901123 
	C425.417999,692.258545 428.268890,667.106567 428.312134,641.734009 
	C428.381409,601.077759 427.953705,560.420776 427.791229,519.763855 
	C427.678009,491.433716 427.705322,463.103027 427.581543,434.772949 
	C427.452820,405.311310 426.777222,375.844391 427.161346,346.390472 
	C427.501923,320.276764 431.315887,294.610107 441.604279,270.308655 
	C449.418121,251.852112 461.168732,235.900818 473.906158,220.629333 
	C478.479553,215.146072 483.274872,209.847946 487.400360,203.774719 
	C482.121979,207.075928 476.964783,210.592468 471.544647,213.641663 
	C445.744751,228.155991 418.027832,235.784103 388.395447,235.101608 
	C370.085571,234.679886 352.678009,229.044693 335.400879,223.443344 
	C317.024841,217.485718 298.779968,211.069794 279.654541,207.848618 
	C261.958862,204.868225 244.393173,204.813446 227.699722,212.467621 
	C204.166306,223.258011 192.295761,239.216827 193.249298,264.522614 
	C194.073792,286.403046 214.483536,307.036865 236.324570,306.410583 
	C249.066116,306.045227 261.758423,299.702301 264.908447,284.528137 
	C265.351929,282.391876 266.135040,280.362335 267.578094,278.671387 
	C270.265228,275.522583 274.179169,275.557892 276.377167,279.059021 
	C278.536011,282.497864 279.599091,286.358093 278.686005,290.500427 
	C276.443542,300.673676 270.147461,307.876404 261.150391,312.378540 
	C234.201157,325.863953 196.383408,318.310913 181.940552,281.769287 
	C171.477615,255.297195 176.323959,229.620392 190.378342,206.083023 
	C211.860748,170.105637 244.265671,149.128159 285.511444,142.192047 
	C309.983185,138.076767 333.934540,141.746490 357.563446,148.514862 
	C378.698242,154.568817 399.256256,162.451218 420.511017,168.124435 
	C435.980225,172.253403 451.548676,175.708084 467.587067,176.653870 
	C495.361633,178.291748 518.624207,167.788330 539.208496,150.072952 
	C540.976074,148.551727 542.629272,146.897903 544.390625,145.369110 
	C546.110901,143.875992 548.003357,142.609848 550.084595,144.682419 
	C552.077637,146.667160 553.283813,148.752060 551.424500,151.740005 
	C547.697327,157.729568 542.989929,162.916962 538.326599,168.111252 
	C516.899231,191.978455 506.286499,220.688889 500.288239,251.592102 
	C496.240448,272.446594 495.072083,293.538086 495.047394,314.671936 
	C494.999695,355.465546 495.609680,396.259796 495.592377,437.053650 
	C495.586670,450.521667 495.909760,463.991730 495.862701,477.462158 
	C495.815704,490.904541 495.783813,504.378754 495.903107,517.836182 
	C496.084412,538.288818 495.263489,558.750671 495.466309,579.202698 
	C495.685944,601.342773 496.060974,623.503906 494.210602,645.557312 
	C489.515686,701.512207 467.270721,748.136475 420.196014,781.012939 
	C416.348999,783.699646 416.053162,785.888489 419.147125,789.283997 
	C427.338013,798.273254 435.311401,807.460266 443.457947,816.490540 
	C451.829956,825.770996 462.703003,833.061584 466.612457,846.158264 
	C459.196747,786.673218 483.087158,743.056519 533.204468,712.108521 
M707.253296,411.499847 
	C707.246277,470.144379 707.336609,528.789307 707.095276,587.432861 
	C707.068481,593.944275 708.741577,598.943237 713.301208,603.468628 
	C720.627808,610.739990 727.788574,618.192200 734.741638,625.821228 
	C739.013062,630.507935 738.678345,632.429382 734.220398,636.750854 
	C726.685669,644.054932 719.124573,651.330383 712.367615,659.390991 
	C709.858521,662.384155 707.521179,665.522583 707.429749,669.519775 
	C707.170593,680.842407 707.202332,692.171448 707.024536,703.496521 
	C706.966858,707.166870 708.761841,709.149658 711.928833,710.773193 
	C718.590393,714.188293 725.343994,717.559326 731.536621,721.726013 
	C745.258301,730.958801 758.149414,741.224670 767.930786,754.846436 
	C769.412903,756.910461 770.960632,758.476379 773.534607,756.030762 
	C787.335083,742.917725 800.721069,729.289673 810.779236,713.111084 
	C824.812927,690.537659 835.594116,666.347046 841.927490,640.400452 
	C848.008362,615.488464 852.114258,590.281250 853.995667,564.644714 
	C855.440979,544.950134 854.958313,525.341553 853.259766,505.784790 
	C851.054810,480.398041 846.399536,455.369690 839.795288,430.727844 
	C828.256531,387.674164 807.181030,350.309235 773.394104,320.780212 
	C753.581360,303.464386 732.019043,288.242157 712.421387,270.641327 
	C711.346252,269.675690 710.222229,268.521332 707.241577,269.277191 
	C707.241577,316.145966 707.241577,363.322815 707.253296,411.499847 
M832.481934,319.004333 
	C826.749878,312.928894 820.963745,306.914673 813.630554,301.790070 
	C813.943359,304.832245 815.706238,306.277863 817.104797,307.796631 
	C825.111206,316.491241 833.243530,325.037354 840.281860,334.603516 
	C858.562744,359.450134 871.395081,386.936646 879.903259,416.428436 
	C885.713440,436.568298 889.699097,457.150299 892.046448,478.006714 
	C894.471924,499.557465 894.963318,521.147522 893.657104,542.815369 
	C893.223389,550.010315 891.705383,557.225342 893.038513,564.540894 
	C893.778625,563.037292 894.358154,561.500366 894.623779,559.911011 
	C897.951599,540.002563 898.666870,519.992371 897.982056,499.811615 
	C897.137085,474.912201 893.141724,450.565704 887.673584,426.344238 
	C878.571045,386.023529 860.354126,350.450317 832.481934,319.004333 
M463.636536,482.500153 
	C463.673187,434.766144 462.980988,387.043091 461.610718,339.327972 
	C457.640289,427.014648 459.586090,514.692688 461.449432,602.373108 
	C463.380371,562.764587 463.501251,523.132324 463.636536,482.500153 
M315.582977,175.054016 
	C309.915131,174.193817 304.273956,172.897400 298.453400,173.972977 
	C314.406982,178.025864 330.235382,182.307922 345.874603,187.393265 
	C364.831024,193.557236 383.477753,201.037338 403.519196,203.282578 
	C409.476654,203.949997 415.483856,204.515488 421.440155,202.920746 
	C408.695587,201.225006 396.083893,199.178680 383.840454,195.335922 
	C371.453461,191.448120 359.112000,187.415268 346.729462,183.513092 
	C336.736694,180.364029 326.755554,177.157700 315.582977,175.054016 
M651.685913,728.941528 
	C642.947632,725.695007 633.783081,724.813599 624.551270,724.122192 
	C637.125916,728.215332 649.942932,731.463867 662.363281,735.967163 
	C674.937866,740.526428 686.764465,746.815552 699.203491,751.746582 
	C685.480103,740.382080 669.265198,734.173950 651.685913,728.941528 
z"/>
<path fill="#000000" opacity="1.000000" stroke="none" 
	d="
M389.547638,742.161255 
	C374.804108,721.078064 356.946503,703.461975 337.005768,687.903442 
	C333.762024,685.372559 332.709656,682.586670 332.721802,678.547974 
	C332.856354,633.720642 332.834320,588.892883 332.795441,544.065186 
	C332.785645,532.773682 330.484283,521.744263 326.182556,511.466522 
	C322.171295,501.882660 315.769073,493.776764 304.031982,493.013550 
	C292.190430,492.243591 285.354950,496.532532 280.316589,507.430328 
	C279.478088,509.243988 278.891571,511.611847 276.350067,511.127960 
	C273.962677,510.673401 274.604828,508.171021 274.344025,506.500031 
	C271.365417,487.415497 275.878387,470.719482 290.715729,457.687653 
	C300.510437,449.084778 311.969391,445.521393 325.000885,447.975647 
	C330.822693,449.072052 331.600647,448.510376 331.651031,442.321503 
	C331.783997,425.990723 331.733673,409.657745 331.965637,393.328644 
	C332.147736,380.508331 332.714600,367.693970 332.977753,354.874237 
	C333.251526,341.535736 329.208557,335.458862 316.887604,330.291199 
	C315.356689,329.649078 313.501556,329.263855 313.433685,327.199707 
	C313.371307,325.302734 314.887085,324.291290 316.309906,323.402863 
	C343.965240,306.134735 368.167450,284.313904 393.940765,264.564606 
	C402.150299,258.273926 410.698853,252.507645 420.141235,248.151642 
	C422.593201,247.020493 424.906891,246.190765 426.941162,248.534302 
	C428.994965,250.900360 427.325226,253.019714 425.870575,254.776443 
	C411.234955,272.451263 404.655792,293.435791 401.333313,315.584076 
	C397.291107,342.530792 398.373444,369.729767 398.349213,396.851013 
	C398.289795,463.347260 398.076874,529.845642 398.536102,596.338989 
	C398.735138,625.155762 399.451630,653.974792 398.852783,682.787170 
	C398.458405,701.763367 396.191986,720.613403 392.778595,739.293030 
	C392.572998,740.418213 393.509247,744.113159 389.547638,742.161255 
M362.350739,464.498169 
	C362.741669,509.584045 363.022064,554.672546 365.055328,599.719971 
	C368.084564,561.984558 367.418854,377.901367 364.056305,370.479340 
	C362.122009,402.373474 362.504456,432.943054 362.350739,464.498169 
z"/>
<path fill="#000000" opacity="1.000000" stroke="none" 
	d="
M587.828369,447.989349 
	C588.105835,431.343506 588.432312,415.195557 588.685791,399.046478 
	C588.819397,390.534088 588.449036,382.070404 585.962708,373.822601 
	C582.877380,363.587677 574.986877,359.304138 565.407410,357.197052 
	C563.778931,356.838837 561.907776,357.189453 561.298828,355.180084 
	C560.583923,352.821167 562.614380,351.986725 564.074951,351.007996 
	C573.895752,344.426666 584.168396,338.571686 593.816528,331.682648 
	C617.995300,314.418274 640.890137,295.626312 662.683777,275.459930 
	C665.738098,272.633667 668.913025,269.933777 672.100830,267.257294 
	C673.801453,265.829437 675.789246,264.507202 677.929260,266.207123 
	C679.939880,267.804260 678.823364,270.031647 678.118835,271.764374 
	C674.670166,280.245361 670.867126,288.574921 668.223083,297.378418 
	C664.373352,310.196747 662.465759,323.336731 661.271851,336.614471 
	C658.680359,365.436523 661.777710,394.144318 662.830505,422.902588 
	C663.500610,441.207855 664.894714,459.467987 665.537964,477.777802 
	C666.176086,495.943512 666.748169,514.098999 665.901489,532.234863 
	C664.496277,562.338928 658.310059,591.386414 643.029419,617.724243 
	C634.018250,633.256104 621.686707,646.146912 607.843201,657.647522 
	C591.179382,671.491089 572.775269,682.412659 553.224182,691.545349 
	C551.008911,692.580078 548.593445,694.585266 546.654175,691.557007 
	C544.733643,688.558105 545.796997,685.692139 548.527100,683.696167 
	C554.089478,679.629272 558.757263,674.706726 563.192200,669.472046 
	C576.732117,653.490295 582.961914,634.444763 585.473206,614.194946 
	C587.869324,594.874634 589.144409,575.410583 588.843018,555.893188 
	C588.721558,548.028992 588.024719,540.231750 585.457520,532.762146 
	C579.127014,514.342773 560.337463,506.579407 544.635010,515.831665 
	C539.391663,518.921143 536.348755,523.876709 533.758667,529.180847 
	C532.553284,531.649231 532.028809,534.553406 529.713074,536.293762 
	C527.510193,535.678711 526.927612,534.128906 526.802979,532.418762 
	C525.679443,517.001282 526.810730,501.964783 536.092163,488.856537 
	C546.662354,473.928314 560.443359,464.418213 579.563599,464.636108 
	C587.091492,464.721924 588.085632,463.679474 588.049744,455.983551 
	C588.038086,453.484375 587.917725,450.985687 587.828369,447.989349 
M625.724487,447.115295 
	C626.113831,433.034088 622.640869,419.180084 623.369446,405.066742 
	C622.483215,421.274200 621.330627,437.465759 622.843933,454.234802 
	C625.998291,452.360565 625.610779,450.081757 625.724487,447.115295 
z"/>
</svg>